<svg width="193" height="165" viewBox="0 0 193 165" fill="none" xmlns="http://www.w3.org/2000/svg">
<g clip-path="url(#clip0)">
<path d="M124.263 63.0664C137.465 63.0664 148.167 52.3854 148.167 39.2096C148.167 26.0339 137.465 15.3528 124.263 15.3528C111.062 15.3528 100.36 26.0339 100.36 39.2096C100.36 52.3854 111.062 63.0664 124.263 63.0664Z" fill="#D9F4E9"/>
<path d="M4.46045 52.7931C17.613 93.6008 69.8803 61.8108 54.8978 95.4272C39.9153 129.044 54.8978 155.868 77.7147 157.352C99.6166 158.779 103.219 138.689 123.063 134.066C142.906 129.443 158.403 142.855 182.707 136.178C207.01 129.557 187.453 71.3421 133.07 75.908C78.6868 80.4739 93.7837 34.3013 80.1736 14.3255C61.3025 -13.4123 -12.8667 -1.02734 4.46045 52.7931Z" fill="#D9F4E9"/>
<path d="M138.591 44.2483L135.314 40.9812L132.04 44.252L135.317 47.519L138.591 44.2483Z" fill="#7BE4DA"/>
<path d="M2.91644 60.0415C16.069 100.849 68.3363 69.0592 53.3538 102.676C38.3713 136.292 53.3538 163.117 76.1707 164.6C98.0726 166.027 101.675 145.937 121.519 141.314C141.362 136.691 156.859 150.104 181.163 143.426C205.466 136.749 185.909 78.5905 131.526 83.1564C77.1428 87.7222 92.2397 41.5496 78.6296 21.5739C59.7013 -6.22102 -14.4679 6.16397 2.91644 60.0415Z" stroke="#7BE4DA" stroke-miterlimit="10"/>
<path d="M121.347 67.347C134.548 67.347 145.25 56.6659 145.25 43.4902C145.25 30.3144 134.548 19.6334 121.347 19.6334C108.145 19.6334 97.4435 30.3144 97.4435 43.4902C97.4435 56.6659 108.145 67.347 121.347 67.347Z" stroke="#7BE4DA" stroke-miterlimit="10"/>
<path d="M169.897 57.1307C169.897 51.0239 164.922 46.0584 158.803 46.0584H42.8317C39.6865 46.0584 36.8273 47.3711 34.8258 49.4829L28.6498 55.9893L31.795 57.1878V113.748C31.795 119.855 36.7701 124.82 42.8889 124.82H158.803C159.489 124.82 160.176 124.763 160.862 124.649L161.205 127.331L166.695 121.567C168.696 119.569 169.897 116.83 169.897 113.748V57.1307Z" fill="#082787"/>
<path d="M89.4948 101.02L26.3052 62.8381C26.3052 56.7312 31.2803 51.7658 37.3991 51.7658H153.313C159.432 51.7658 164.064 56.7883 164.064 62.8952L101.218 101.02C97.6151 103.189 93.0975 103.189 89.4948 101.02Z" fill="white"/>
<path d="M37.3991 130.242C31.4518 130.242 26.5911 125.391 26.5911 119.455V62.781C26.5911 56.8454 31.4518 51.9941 37.3991 51.9941H153.313C159.261 51.9941 164.121 56.8454 164.121 62.781V119.455C164.121 125.391 159.261 130.242 153.313 130.242H37.3991Z" fill="white"/>
<path d="M153.313 52.3365C159.089 52.3365 163.836 57.0737 163.836 62.8381V119.512C163.836 125.277 159.089 130.014 153.313 130.014H37.3991C31.6234 130.014 26.877 125.277 26.877 119.512V62.8381C26.877 57.0737 31.6234 52.3365 37.3991 52.3365H153.313ZM153.313 51.7658H37.3991C31.2803 51.7658 26.3052 56.7312 26.3052 62.8381V119.512C26.3052 125.619 31.2803 130.585 37.3991 130.585H153.313C159.432 130.585 164.407 125.619 164.407 119.512V62.8381C164.407 56.7312 159.432 51.7658 153.313 51.7658Z" fill="#082787"/>
<path d="M26.6483 63.6371L90.1238 100.963C91.8394 101.991 97.901 102.847 100.989 101.077L163.893 63.8084V64.8357L102.762 109.467C98.1298 112.892 91.7822 112.949 87.093 109.524L26.7627 65.1781L26.6483 63.6371Z" fill="#AAE2CE"/>
<path d="M157.316 126.761L117.859 90.633L120.26 89.2062L158.403 125.562C158.86 125.962 158.975 126.532 158.689 126.875C158.403 127.217 157.774 127.16 157.316 126.761Z" fill="#082787"/>
<path d="M164.407 62.8381L101.218 100.621C97.6151 103.189 93.0975 102.79 89.4948 100.621L26.3052 62.8381" stroke="#082787" stroke-width="2" stroke-miterlimit="10"/>
<path d="M84.4625 76.0221C84.4625 68.2601 90.2382 63.0664 97.2148 63.0664C103.334 63.0664 107.222 67.2328 107.222 73.1114C107.222 78.1909 103.734 80.7022 100.703 80.7022C99.1019 80.7022 97.7295 79.9602 97.3864 78.6475H97.3292C96.643 79.7319 95.1562 80.4739 94.0124 80.4739C91.7822 80.4739 90.2954 78.7617 90.2954 76.2504C90.2954 72.7689 92.8116 69.4016 95.9567 69.4016C96.8145 69.4016 97.5579 69.8011 98.0154 70.7714H98.0726L98.5301 69.6299H101.389L100.074 75.8509C99.731 77.2207 100.131 77.9056 101.218 77.9056C102.876 77.9056 104.363 76.0221 104.363 73.2255C104.363 69.5157 102.419 65.863 96.8717 65.863C92.2397 65.863 87.6649 69.8011 87.6649 75.908C87.6649 81.33 91.4963 83.7271 95.6136 83.7271C96.9289 83.7271 98.5873 83.2705 99.6738 82.7568L100.646 85.2681C98.9304 86.1242 97.2148 86.5237 95.2133 86.5237C89.6092 86.5237 84.4625 83.2134 84.4625 76.0221ZM96.5858 76.4216L97.2148 72.9972C97.0433 72.5977 96.5858 72.3123 96.1283 72.3123C94.6987 72.3123 93.8409 74.4241 93.8409 75.908C93.8409 76.9353 94.2984 77.506 95.099 77.506C95.5565 77.5631 95.9567 77.2777 96.5858 76.4216Z" fill="#082787"/>
<path d="M63.304 149.134C63.0181 148.62 62.4462 148.563 61.9316 148.791C61.2453 149.076 60.5591 149.305 59.8157 149.419C59.7013 148.905 59.587 148.392 59.5298 147.878C59.5298 146.965 59.5298 146.109 59.4726 145.253C59.4154 143.94 57.5855 143.997 57.4711 145.253C57.3567 146.223 57.4139 147.193 57.5283 148.163C57.5283 148.677 57.4711 149.191 57.4711 149.647C56.499 149.647 55.5268 149.476 54.5547 149.191C53.2966 148.791 52.7819 150.789 54.04 151.131C55.0693 151.416 56.0987 151.588 57.128 151.645C56.8993 152.615 56.499 153.528 55.9843 154.384C55.2981 155.469 57.0136 156.496 57.6999 155.412C58.2145 154.556 58.6148 153.699 58.9007 152.786C59.4726 153.985 60.216 155.069 61.0738 156.039C61.4169 156.439 62.1603 156.382 62.5034 156.039C62.9037 155.64 62.8465 155.012 62.5034 154.613C61.6456 153.642 60.9594 152.558 60.4447 151.359C61.3025 151.188 62.1031 150.903 62.9609 150.56C63.4184 150.275 63.5899 149.533 63.304 149.134Z" fill="#7BE4DA"/>
<path d="M165.78 35.614C165.494 35.1003 164.922 35.0432 164.407 35.2715C163.721 35.5569 163.035 35.7852 162.292 35.8993C162.177 35.3857 162.063 34.872 162.006 34.3583C162.006 33.4452 162.006 32.5891 161.948 31.733C161.891 30.4203 160.061 30.4773 159.947 31.733C159.833 32.7032 159.89 33.6735 160.004 34.6437C160.004 35.1574 159.947 35.671 159.947 36.1276C158.975 36.1276 158.003 35.9564 157.031 35.671C155.772 35.2715 155.258 37.2691 156.516 37.6115C157.545 37.8969 158.575 38.0681 159.604 38.1252C159.375 39.0955 158.975 40.0086 158.46 40.8647C157.774 41.9491 159.489 42.9765 160.176 41.8921C160.69 41.036 161.091 40.1799 161.377 39.2667C161.948 40.4652 162.692 41.5496 163.55 42.5199C163.893 42.9194 164.636 42.8623 164.979 42.5199C165.38 42.1204 165.322 41.4926 164.979 41.093C164.121 40.1228 163.435 39.0384 162.921 37.8398C163.778 37.6686 164.579 37.3832 165.437 37.0408C165.951 36.7554 166.066 36.0135 165.78 35.614Z" fill="#7BE4DA"/>
<path d="M30.8228 33.4452C30.5369 32.9315 29.9651 32.8744 29.4504 33.1027C28.7642 33.3881 28.0779 33.6164 27.3345 33.7305C27.2202 33.2169 27.1058 32.7032 27.0486 32.1895C27.0486 31.2764 27.0486 30.4203 26.9914 29.5642C26.9342 28.2515 25.1043 28.3085 24.9899 29.5642C24.8756 30.5344 24.9328 31.5047 25.0471 32.4749C25.0471 32.9886 24.9899 33.5022 24.9899 33.9588C24.0178 33.9588 23.0456 33.7876 22.0735 33.5022C20.8154 33.1027 20.3008 35.1003 21.5588 35.4427C22.5882 35.7281 23.6175 35.8993 24.6468 35.9564C24.4181 36.9267 24.0178 37.8398 23.5031 38.6959C22.8169 39.7803 24.5325 40.8077 25.2187 39.7233C25.7333 38.8672 26.1336 38.0111 26.4196 37.0979C26.9914 38.2964 27.7348 39.3808 28.5926 40.3511C28.9357 40.7506 29.6791 40.6935 30.0222 40.3511C30.4225 39.9516 30.3653 39.3238 30.0222 38.9242C29.1645 37.954 28.4782 36.8696 27.9636 35.671C28.8213 35.4998 29.6219 35.2145 30.4797 34.872C30.9372 34.6437 31.0516 33.9018 30.8228 33.4452Z" fill="#7BE4DA"/>
<path d="M32.8243 126.076L72.6252 90.5189L70.6237 89.3203L31.795 124.877C31.3375 125.277 31.2231 125.847 31.509 126.19C31.7378 126.532 32.3096 126.418 32.8243 126.076Z" fill="#082787"/>
<path d="M153.313 130.527H37.3991C31.2803 130.527 26.3052 125.562 26.3052 119.455V62.781C26.3052 56.6742 31.2803 51.7087 37.3991 51.7087H153.313C159.432 51.7087 164.407 56.6742 164.407 62.781V119.455C164.407 125.619 159.432 130.527 153.313 130.527Z" stroke="#082787" stroke-miterlimit="10"/>
<path d="M65.7619 14.9902L60.0573 9.30307L54.3591 14.9966L60.0637 20.6837L65.7619 14.9902Z" fill="#7BE4DA"/>
<path d="M22.7597 58.2722C23.8651 58.2722 24.7612 57.3779 24.7612 56.2746C24.7612 55.1714 23.8651 54.2771 22.7597 54.2771C21.6543 54.2771 20.7582 55.1714 20.7582 56.2746C20.7582 57.3779 21.6543 58.2722 22.7597 58.2722Z" fill="#7BE4DA"/>
<path d="M71.024 142.171C72.1294 142.171 73.0255 141.276 73.0255 140.173C73.0255 139.07 72.1294 138.175 71.024 138.175C69.9186 138.175 69.0225 139.07 69.0225 140.173C69.0225 141.276 69.9186 142.171 71.024 142.171Z" fill="#7BE4DA"/>
<path d="M187.339 100.278C188.444 100.278 189.34 99.3841 189.34 98.2808C189.34 97.1776 188.444 96.2833 187.339 96.2833C186.233 96.2833 185.337 97.1776 185.337 98.2808C185.337 99.3841 186.233 100.278 187.339 100.278Z" fill="#7BE4DA"/>
<path d="M174.987 131.098C176.092 131.098 176.988 130.204 176.988 129.101C176.988 127.997 176.092 127.103 174.987 127.103C173.881 127.103 172.985 127.997 172.985 129.101C172.985 130.204 173.881 131.098 174.987 131.098Z" fill="#7BE4DA"/>
<path d="M22.3022 83.3847C23.4076 83.3847 24.3037 82.4903 24.3037 81.3871C24.3037 80.2838 23.4076 79.3895 22.3022 79.3895C21.1968 79.3895 20.3008 80.2838 20.3008 81.3871C20.3008 82.4903 21.1968 83.3847 22.3022 83.3847Z" fill="#7BE4DA"/>
<path d="M126.379 124.763H67.2498" stroke="#082787" stroke-width="2" stroke-miterlimit="10" stroke-linecap="round"/>
<path d="M158.403 79.9602V115.232C158.403 120.54 154.114 124.82 148.796 124.82H135.7" stroke="#082787" stroke-width="2" stroke-miterlimit="10" stroke-linecap="round"/>
</g>
<defs>
<clipPath id="clip0">
<rect width="193" height="165" fill="white"/>
</clipPath>
</defs>
</svg>
