<svg xmlns="http://www.w3.org/2000/svg" width="182.55" height="165.5" viewBox="0 0 182.55 165.5">
  <g id="usericon" transform="translate(-6 -16.003)">
    <g id="Background" transform="translate(6.5 16.003)">
      <path id="Path_12314" data-name="Path 12314" d="M176.944,99.468A83.471,83.471,0,1,0,17.43,133.9H169.515A83.158,83.158,0,0,0,176.944,99.468Z" transform="translate(-2.697 -16.003)" fill="#fff"/>
      <line id="Line_35" data-name="Line 35" x2="162.769" transform="translate(9.391 117.897)" fill="none" stroke="#001f54" stroke-linecap="round" stroke-linejoin="round" stroke-width="1"/>
      <line id="Line_36" data-name="Line 36" x2="5.217" transform="translate(0 117.897)" fill="none" stroke="#001f54" stroke-linecap="round" stroke-linejoin="round" stroke-width="1"/>
      <line id="Line_37" data-name="Line 37" x2="5.217" transform="translate(176.333 117.897)" fill="none" stroke="#001f54" stroke-linecap="round" stroke-linejoin="round" stroke-width="1"/>
    </g>
    <g id="Scene" transform="translate(15.856 46.735)">
      <path id="Path_12315" data-name="Path 12315" d="M89.19,90.167c0,2.087-11.31,3.8-25.25,3.8s-25.25-1.711-25.25-3.8S49.979,86.39,63.94,86.39,89.19,88.08,89.19,90.167Z" transform="translate(19.127 29.76)" fill="#d1e7fd"/>
      <path id="Path_12316" data-name="Path 12316" d="M25.087,48.27H43.659a2.087,2.087,0,0,1,2.087,2.087V98.77H23V50.357A2.087,2.087,0,0,1,25.087,48.27Z" transform="translate(2.076 -11.668)" fill="#d1e7fd" stroke="#001f54" stroke-linecap="round" stroke-linejoin="round" stroke-width="1"/>
      <path id="Path_12317" data-name="Path 12317" d="M70.417,51.9H88.968a2.087,2.087,0,0,1,2.087,2.087V94.825H68.33V53.987A2.087,2.087,0,0,1,70.417,51.9Z" transform="translate(51.339 -7.723)" fill="#d1e7fd" stroke="#001f54" stroke-linecap="round" stroke-linejoin="round" stroke-width="1"/>
      <rect id="Rectangle_341" data-name="Rectangle 341" width="15.15" height="17.675" transform="translate(113.408 94.09) rotate(-45)" stroke-width="1" stroke="#001f54" stroke-linecap="round" stroke-linejoin="round" fill="#fff"/>
      <path id="Path_12318" data-name="Path 12318" d="M107.406,98.486a10.1,10.1,0,0,1-14.274,14.274L71.7,91.349a2.567,2.567,0,0,1,0-3.589L82.406,77.054a2.525,2.525,0,0,1,3.568,0Z" transform="translate(54.208 18.812)" fill="#d1e7fd"/>
      <path id="Path_12319" data-name="Path 12319" d="M107.406,98.486a10.1,10.1,0,0,1-14.274,14.274L71.7,91.349a2.567,2.567,0,0,1,0-3.589L82.406,77.054a2.525,2.525,0,0,1,3.568,0Z" transform="translate(54.208 18.812)" fill="none" stroke="#001f54" stroke-linecap="round" stroke-linejoin="round" stroke-width="1"/>
      <circle id="Ellipse_100" data-name="Ellipse 100" cx="53.025" cy="53.025" r="53.025" transform="translate(30.042)" fill="#fff"/>
      <circle id="Ellipse_101" data-name="Ellipse 101" cx="53.025" cy="53.025" r="53.025" transform="translate(30.042)" stroke-width="1" stroke="#001f54" stroke-linecap="round" stroke-linejoin="round" fill="none"/>
      <circle id="Ellipse_102" data-name="Ellipse 102" cx="41.652" cy="41.652" r="41.652" transform="translate(32.952 83.983) rotate(-76.72)" fill="#d1e7fd"/>
      <path id="Path_12320" data-name="Path 12320" d="M72.435,36.17A41.736,41.736,0,0,0,42.97,107.288l58.91-58.952A41.527,41.527,0,0,0,72.435,36.17Z" transform="translate(10.632 -24.818)" fill="#fff"/>
      <circle id="Ellipse_103" data-name="Ellipse 103" cx="41.652" cy="41.652" r="41.652" transform="translate(32.952 83.983) rotate(-76.72)" stroke-width="1" stroke="#001f54" stroke-linecap="round" stroke-linejoin="round" fill="none"/>
      <path id="Path_12321" data-name="Path 12321" d="M35.85,84.522H12.04V71.5L23.956,61.38,35.85,71.5Z" transform="translate(-9.835 2.58)" fill="#d1e7fd" stroke="#001f54" stroke-linecap="round" stroke-linejoin="round" stroke-width="1"/>
      <path id="Path_12322" data-name="Path 12322" d="M37.165,74.86a2.588,2.588,0,0,1-1.628-.605L25.271,65.532,14.983,74.338a2.525,2.525,0,0,1-3.255-3.84L23.539,60.378a2.5,2.5,0,0,1,3.276,0L38.73,70.5a2.5,2.5,0,0,1,.292,3.548A2.546,2.546,0,0,1,37.165,74.86Z" transform="translate(-10.984 0.828)" fill="#d1e7fd" stroke="#001f54" stroke-linejoin="round" stroke-width="1"/>
      <path id="Path_12323" data-name="Path 12323" d="M22.56,76.811H16.3V71.135a3.172,3.172,0,0,1,6.26,0Z" transform="translate(-5.206 10.291)" fill="#d1e7fd" stroke="#001f54" stroke-linejoin="round" stroke-width="1"/>
      <path id="Path_12324" data-name="Path 12324" d="M95.475,77.166a6.313,6.313,0,0,1-12.625,0c0-2.859,4.174-16.486,5.76-21.39a.584.584,0,0,1,1.106,0C91.26,60.68,95.475,74.307,95.475,77.166Z" transform="translate(67.12 -3.94)" fill="#d1e7fd" stroke="#001f54" stroke-linecap="round" stroke-linejoin="round" stroke-width="1"/>
      <line id="Line_38" data-name="Line 38" y1="7.575" transform="translate(156.292 79.527)" fill="none" stroke="#001f54" stroke-linecap="round" stroke-linejoin="round" stroke-width="1"/>
      <path id="Path_12325" data-name="Path 12325" d="M63.332,89.155a41.733,41.733,0,0,0,23.912-7.531,25.187,25.187,0,0,0-47.994,0A41.4,41.4,0,0,0,63.332,89.155Z" transform="translate(19.736 5.523)" fill="#d1e7fd" stroke="#001f54" stroke-linecap="round" stroke-linejoin="round" stroke-width="1"/>
      <path id="Path_12326" data-name="Path 12326" d="M60.028,80.159A14.774,14.774,0,0,0,74.114,69.725h0c4.7,0,4.967-7.408.751-7.408v-2.88a14.837,14.837,0,0,0-29.653,0V62.4c-4.174,0-3.944,7.408.751,7.408h0a14.754,14.754,0,0,0,14.065,10.35Z" transform="translate(22.998 -15.051)" fill="#fff" stroke="#001f54" stroke-linecap="round" stroke-linejoin="round" stroke-width="1"/>
      <path id="Path_12327" data-name="Path 12327" d="M49.427,52.7a1.857,1.857,0,1,0,1.857,1.857A1.836,1.836,0,0,0,49.427,52.7Z" transform="translate(28.778 -6.853)" fill="#001f54"/>
      <path id="Path_12328" data-name="Path 12328" d="M54.047,52.7A1.857,1.857,0,1,0,55.9,54.557,1.857,1.857,0,0,0,54.047,52.7Z" transform="translate(33.799 -6.853)" fill="#001f54"/>
      <path id="Path_12329" data-name="Path 12329" d="M48.763,56.312a1.482,1.482,0,1,1-1.482-1.482A1.482,1.482,0,0,1,48.763,56.312Z" transform="translate(26.854 -4.539)" fill="#d1e7fd"/>
      <path id="Path_12330" data-name="Path 12330" d="M57.283,56.312A1.482,1.482,0,1,1,55.8,54.83,1.482,1.482,0,0,1,57.283,56.312Z" transform="translate(36.114 -4.539)" fill="#d1e7fd"/>
      <path id="Path_12331" data-name="Path 12331" d="M49,57.74a6.719,6.719,0,0,0,7.408,0" transform="translate(30.332 -1.376)" fill="none" stroke="#001f54" stroke-linecap="round" stroke-linejoin="round" stroke-width="1"/>
      <path id="Path_12332" data-name="Path 12332" d="M51.129,55.771c6.49,6.26,17.7,5.259,24.457,2.984a16.319,16.319,0,0,0-32.616,0v5.092s8.159-2.087,8.159-8.159" transform="translate(23.779 -17.374)" fill="#fff" stroke="#001f54" stroke-linecap="round" stroke-linejoin="round" stroke-width="1"/>
      <path id="Path_12333" data-name="Path 12333" d="M51.129,55.771c6.49,6.26,17.7,5.259,24.457,2.984a16.319,16.319,0,0,0-32.616,0v5.092s8.159-2.087,8.159-8.159" transform="translate(23.779 -17.374)" fill="none" stroke="#001f54" stroke-linecap="round" stroke-linejoin="round" stroke-width="1"/>
      <path id="Path_12334" data-name="Path 12334" d="M47.652,49.934c-.751-.73-.856-.605-1.482-1.544" transform="translate(27.256 -11.537)" fill="none" stroke="#001f54" stroke-linecap="round" stroke-linejoin="round" stroke-width="1"/>
      <line id="Line_39" data-name="Line 39" y1="3.881" transform="translate(99.323 87.499)" fill="none" stroke="#001f54" stroke-linecap="round" stroke-linejoin="round" stroke-width="1"/>
      <line id="Line_40" data-name="Line 40" y1="3.861" transform="translate(66.707 87.499)" fill="none" stroke="#001f54" stroke-linecap="round" stroke-linejoin="round" stroke-width="1"/>
      <path id="Path_12335" data-name="Path 12335" d="M62.021,65.236a25.292,25.292,0,0,0-14.8,0,7.408,7.408,0,1,0,14.8,0Z" transform="translate(28.392 5.568)" fill="#fff" stroke="#001f54" stroke-linecap="round" stroke-linejoin="round" stroke-width="1"/>
    </g>
  </g>
</svg>
