<svg xmlns="http://www.w3.org/2000/svg" viewBox="0 0 600 103.1"><path d="M110 83.9v18.2h-2.2V65.2h2.2V82h23V65.2h2.2v37H133V84l-23-.1zm46.4 19.1c-10.8 0-17.1-8.5-17.1-19.4s6.4-19.4 17.1-19.4c10.7 0 17.1 8.5 17.1 19.4s-6.4 19.4-17.1 19.4zm0-1.9c9.4 0 14.9-7.9 14.9-17.4s-5.4-17.4-14.9-17.4c-9.4 0-14.9 7.9-14.9 17.4s5.5 17.4 14.9 17.4zm16.9-34v-2h27.6v2h-12.6v35H186v-35h-12.7zm56.1 33.1v2H205v-37h24.2v2h-22V82h20.6v2h-20.6v16.3c0-.1 22.2-.1 22.2-.1zm3.8-35h2.2v35h20.4v2h-22.6v-37zm40.3 0h3.2l14.1 34.4h.1l13.9-34.4h3.2v37h-2.2V68h-.1L292 102.2h-2.2l-14-34.2h-.1v34.2h-2.2v-37zm54.8 0l14.2 37h-2.4l-4.5-11.9h-17.2l-4.6 11.9h-2.4l14.5-37h2.4zm6.6 23.1l-7.7-20.9h-.1l-8 20.9h15.8zm11.4-23.1h2.8l22.7 33.9h.1V65.2h2.2v37h-2.6L348.6 68h-.1v34.2h-2.2v-37zm48 0l14.2 37h-2.4l-4.5-11.9h-17.1l-4.6 11.9h-2.4l14.5-37h2.3zm6.6 23.1l-7.7-20.9h-.1l-8 20.9h15.8zm39.7-4.3v18.2h-1.9v-7.9h-.1c-1.8 5.4-7.3 8.8-13.6 8.8-10.9 0-17-8.5-17-19.2s6.2-19.7 17-19.7c7.4 0 13.7 4.6 15 12.3h-2.1c-1.7-6.4-6.2-10.4-12.8-10.4-9.7 0-14.8 8.4-14.8 17.6 0 9.4 4.9 17.2 14.8 17.2 8.6 0 14-6.1 13.6-15.1h-13.2V84h15.1zm28.6 16.2v2h-24.4v-37H469v2h-22V82h20.6v2H447v16.3l22.2-.1zm4-35h3.1l14.1 34.4h.1l13.9-34.4h3.2v37h-2.1V68h-.1l-13.7 34.2h-2.2L475.6 68h-.1v34.2h-2.2l-.1-37zm63.1 35v2h-24.4v-37h24.2v2h-22V82h20.6v2h-20.6v16.3l22.2-.1zm4.1-35h2.8L566 99.1h.1V65.2h2.2v37h-2.6L542.8 68h-.1v34.2h-2.2l-.1-37zm32 1.9v-2H600v2h-12.7v35h-2.2v-35h-12.7zM12.6 0h9.6v31.4h37.9V0h9.6v73.1h-9.6V39.6H22.2v33.5h-9.6V0z" fill="#002358"/><path d="M72.6 39.5h9.6v62.6h-9.6V39.5zM0 39.5h9.6v62.6H0V39.5zm41.1 51.8L25.1 52v22.2L35.9 102h10.3l10.9-27.9V52l-16 39.3z" fill="#0069b5"/></svg>