<svg xmlns="http://www.w3.org/2000/svg" xmlns:xlink="http://www.w3.org/1999/xlink" viewBox="0 0 700 215.6"><g fill="#fff"><path d="M262.2 215.5c-2.5 0-4.8-.5-6.9-1.5-2.1-1-3.9-2.4-5.3-4.1-1.5-1.7-2.6-3.6-3.4-5.8-.8-2.2-1.2-4.4-1.2-6.7 0-2.4.4-4.7 1.3-6.9s2-4.1 3.6-5.8c1.5-1.7 3.3-3 5.4-4 2.1-1 4.3-1.5 6.7-1.5 2.5 0 4.8.5 6.8 1.6 2.1 1.1 3.8 2.5 5.3 4.2 1.5 1.7 2.6 3.7 3.4 5.8.8 2.2 1.2 4.4 1.2 6.7 0 2.4-.4 4.7-1.3 6.9s-2 4.1-3.5 5.8c-1.5 1.7-3.3 3-5.3 4-2.2.8-4.4 1.3-6.8 1.3zm-13.3-18.2c0 2 .3 3.8 1 5.6.6 1.8 1.5 3.4 2.7 4.8 1.2 1.4 2.6 2.5 4.2 3.3 1.6.8 3.4 1.2 5.4 1.2 2 0 3.9-.4 5.5-1.3 1.7-.9 3.1-2 4.2-3.4s2-3 2.7-4.8c.6-1.8.9-3.6.9-5.5 0-2-.3-3.8-1-5.6-.7-1.8-1.6-3.4-2.8-4.8-1.2-1.4-2.6-2.5-4.2-3.3-1.6-.8-3.4-1.2-5.4-1.2-2 0-3.9.4-5.5 1.3-1.7.9-3.1 2-4.2 3.4s-2 3-2.7 4.8c-.5 1.8-.8 3.7-.8 5.5zM290.8 215.3v-35.9h14.9c1.6 0 3 .3 4.3 1 1.3.7 2.4 1.5 3.4 2.6.9 1.1 1.7 2.3 2.2 3.6.5 1.4.8 2.7.8 4.1 0 1.5-.3 2.9-.8 4.3s-1.2 2.6-2.1 3.6c-.9 1-2 1.9-3.3 2.5-1.3.6-2.7 1-4.2 1h-11.6v13.2h-3.6zm3.5-16.4h11.5c1 0 2-.2 2.9-.7.9-.5 1.6-1.1 2.2-1.8.6-.8 1.1-1.6 1.4-2.6.3-1 .5-2 .5-3.1s-.2-2.2-.6-3.2c-.4-1-.9-1.9-1.6-2.6-.7-.7-1.4-1.3-2.3-1.7-.9-.4-1.8-.6-2.8-.6h-11.2v16.3zM351.4 212.1v3.1h-24.1v-35.9H351v3.1h-20.1v12.9h17.5v3h-17.5V212h20.5zM363.1 215.3v-35.9h15.2c1.5 0 3 .3 4.3 1 1.3.7 2.4 1.5 3.4 2.6.9 1.1 1.7 2.3 2.2 3.6.5 1.4.8 2.7.8 4.1 0 1.3-.2 2.6-.6 3.8-.4 1.2-.9 2.3-1.6 3.2-.7 1-1.5 1.8-2.5 2.4-1 .7-2.1 1.1-3.3 1.3l8.8 13.9h-4l-8.4-13.2h-10.6v13.2h-3.7zm3.6-16.4h11.7c1 0 2-.2 2.9-.7.9-.5 1.6-1.1 2.2-1.8.6-.8 1.1-1.7 1.4-2.6.3-1 .5-2 .5-3.1s-.2-2.1-.6-3.1c-.4-1-.9-1.9-1.6-2.6-.7-.7-1.4-1.3-2.3-1.8-.9-.4-1.8-.7-2.8-.7h-11.4v16.4zM411.8 179.4h3l14.9 35.9H426l-4.7-11.2h-16.1l-4.6 11.2h-3.8l15-35.9zm8.7 21.9l-7.2-17.7-7.3 17.7h14.5zM461.8 182.5H449v32.8h-3.5v-32.8h-12.8v-3.1h29.1v3.1zM472.2 215.3v-35.9h3.5v35.9h-3.5zM504.2 215.5c-2.5 0-4.8-.5-6.9-1.5-2.1-1-3.9-2.4-5.3-4.1-1.5-1.7-2.6-3.6-3.4-5.8-.8-2.2-1.2-4.4-1.2-6.7 0-2.4.4-4.7 1.3-6.9s2-4.1 3.6-5.8c1.5-1.7 3.3-3 5.4-4s4.3-1.5 6.7-1.5c2.5 0 4.8.5 6.8 1.6 2.1 1.1 3.8 2.5 5.3 4.2 1.5 1.7 2.6 3.7 3.4 5.8.8 2.2 1.2 4.4 1.2 6.7 0 2.4-.4 4.7-1.3 6.9s-2 4.1-3.5 5.8c-1.5 1.7-3.3 3-5.3 4-2.1.8-4.4 1.3-6.8 1.3zm-13.3-18.2c0 2 .3 3.8 1 5.6.6 1.8 1.5 3.4 2.7 4.8s2.6 2.5 4.2 3.3c1.6.8 3.4 1.2 5.4 1.2 2 0 3.9-.4 5.5-1.3 1.7-.9 3.1-2 4.2-3.4s2-3 2.7-4.8c.6-1.8.9-3.6.9-5.5 0-2-.3-3.8-1-5.6-.7-1.8-1.6-3.4-2.8-4.8-1.2-1.4-2.6-2.5-4.2-3.3-1.6-.8-3.4-1.2-5.4-1.2-2 0-3.9.4-5.5 1.3-1.7.9-3.1 2-4.2 3.4s-2 3-2.7 4.8c-.4 1.8-.8 3.7-.8 5.5zM536.3 185.9v29.3h-3.5v-35.9h2.7l23.8 29.9v-29.8h3.5v35.9h-3.1l-23.4-29.4zM597.9 186.1c-1-1.1-2.4-2.1-4-2.8-1.7-.7-3.6-1.1-5.8-1.1-3.2 0-5.5.6-6.9 1.8-1.4 1.2-2.2 2.8-2.2 4.9 0 1.1.2 2 .6 2.7.4.7 1 1.3 1.8 1.8s1.8.9 3.1 1.3 2.8.7 4.5 1.1c1.9.4 3.6.9 5.2 1.4 1.5.5 2.8 1.1 3.9 1.9 1.1.8 1.9 1.7 2.5 2.8s.9 2.4.9 4c0 1.7-.3 3.1-1 4.3-.6 1.2-1.5 2.2-2.7 3-1.1.8-2.5 1.4-4.1 1.8-1.6.4-3.3.6-5.2.6-5.6 0-10.4-1.7-14.4-5.2l1.8-2.9c.6.7 1.4 1.3 2.3 1.9.9.6 1.9 1.1 3 1.6s2.3.8 3.5 1.1c1.2.3 2.6.4 3.9.4 2.9 0 5.1-.5 6.7-1.5 1.6-1 2.4-2.6 2.4-4.7 0-1.1-.2-2-.7-2.8-.5-.8-1.1-1.4-2-2-.9-.6-2-1-3.4-1.4-1.3-.4-2.9-.8-4.7-1.2-1.9-.4-3.5-.9-5-1.4-1.4-.5-2.6-1.1-3.6-1.8s-1.7-1.6-2.2-2.6c-.5-1-.7-2.2-.7-3.7 0-1.7.3-3.1.9-4.4.6-1.3 1.5-2.4 2.7-3.2 1.1-.9 2.5-1.5 4-2s3.3-.7 5.2-.7c2.4 0 4.5.4 6.4 1.1 1.9.7 3.6 1.7 5.1 3.1l-1.8 2.8z"/></g><defs><path id="a" d="M90.3.1V157h58.2c1.1 19.1-2.5 26.1-6.6 30-4.6 4.4-12.3 8.4-28.2 9.5v14c39.7 0 64.9-14.5 66-53.5V0L90.3.1z"/></defs><use xlink:href="#a" overflow="visible" fill="#fff"/><clipPath id="b"><use xlink:href="#a" overflow="visible"/></clipPath><path clip-path="url(#b)" fill="#fff" d="M90.3 0h89.5v210.5H90.3z"/><g><defs><path id="c" d="M0 157c1.1 39 26.3 53.5 66 53.5v-14c-15.9-1.1-23.6-5.1-28.2-9.5-4.1-3.9-7.6-10.9-6.6-30h37.2V59.8L0 59.7V157z"/></defs><use xlink:href="#c" overflow="visible" fill="#fff"/><clipPath id="d"><use xlink:href="#c" overflow="visible"/></clipPath><path clip-path="url(#d)" fill="#fff" d="M0 59.7h68.5v150.8H0z"/></g><g><path d="M342.9 45.2v111.9h-21.6v-47.8h-50.8v47.8h-21.8V45.2h21.8v45.2h50.8V45.2h21.6z" fill="#fff"/></g><g fill="#fff"><path d="M403.1 158.7c-6.7 0-12.8-1.2-18.1-3.5-5.4-2.3-9.9-5.4-13.6-9.4-3.7-3.9-6.6-8.5-8.6-13.6s-3-10.6-3-16.2c0-5.8 1-11.2 3-16.4 2-5.1 4.9-9.7 8.6-13.6 3.7-3.9 8.3-7.1 13.6-9.4 5.4-2.3 11.4-3.5 18.1-3.5 6.7 0 12.7 1.2 18.1 3.5 5.3 2.3 9.8 5.4 13.6 9.4 3.7 3.9 6.6 8.5 8.6 13.6 2 5.2 3 10.6 3 16.4 0 5.7-1 11.1-3 16.2-2 5.2-4.8 9.7-8.5 13.6-3.7 3.9-8.2 7.1-13.6 9.4-5.4 2.4-11.5 3.5-18.2 3.5zM381.5 116c0 3.7.6 7 1.7 10s2.6 5.6 4.6 7.8c1.9 2.2 4.2 3.9 6.9 5.1 2.6 1.2 5.5 1.8 8.5 1.8s5.9-.6 8.5-1.8c2.6-1.2 4.9-2.9 6.9-5.1 1.9-2.2 3.5-4.8 4.6-7.9 1.1-3 1.7-6.4 1.7-10.1 0-3.6-.6-6.9-1.7-9.9s-2.6-5.7-4.6-7.9c-1.9-2.2-4.2-3.9-6.9-5.1-2.6-1.2-5.5-1.8-8.5-1.8-3.1 0-5.9.6-8.5 1.9-2.6 1.3-4.9 3-6.9 5.2-1.9 2.2-3.5 4.8-4.6 7.9-1.1 3-1.7 6.3-1.7 9.9zM512.9 152.9c-2.8 1.3-6.3 2.5-10.4 3.8-4.1 1.3-8.4 1.9-12.9 1.9-2.9 0-5.7-.4-8.3-1.1-2.6-.7-4.8-1.9-6.8-3.5-1.9-1.6-3.5-3.7-4.6-6.3-1.2-2.6-1.7-5.7-1.7-9.4V90.8h-10.9V74.5h10.9V47.7h21.1v26.8h17.3v16.2h-17.3v40.4c0 2.9.8 5 2.3 6.2 1.5 1.2 3.4 1.8 5.6 1.8 2.2 0 4.4-.4 6.5-1.1 2.1-.7 3.8-1.4 5-1.9l4.2 16.8zM564.1 158.7c-6.6 0-12.6-1.1-18-3.4s-9.9-5.3-13.7-9.2c-3.8-3.9-6.7-8.4-8.7-13.6-2-5.1-3.1-10.6-3.1-16.2 0-5.9 1-11.4 3-16.6 2-5.2 4.9-9.8 8.7-13.7 3.8-3.9 8.4-7.1 13.8-9.4 5.4-2.3 11.5-3.5 18.2-3.5 6.7 0 12.7 1.2 18.1 3.5 5.3 2.3 9.8 5.4 13.6 9.3 3.7 3.9 6.6 8.4 8.5 13.6 1.9 5.2 2.9 10.5 2.9 16.1 0 1.4 0 2.7-.1 3.9-.1 1.3-.2 2.3-.4 3.2H543c.3 3.3 1.1 6.1 2.4 8.7 1.3 2.5 2.9 4.7 4.9 6.5 2 1.8 4.3 3.2 6.8 4.1 2.5.9 5.1 1.4 7.9 1.4 4.2 0 8.2-1 11.9-3.1 3.7-2 6.3-4.8 7.6-8.1l18.1 5c-3 6.3-7.9 11.5-14.6 15.5-6.7 4-14.7 6-23.9 6zm21.4-49.8c-.5-6.2-2.8-11.2-6.9-14.9-4-3.7-9-5.6-14.7-5.6-2.8 0-5.5.5-8 1.5s-4.6 2.4-6.5 4.2c-1.9 1.8-3.4 3.9-4.7 6.5-1.2 2.5-1.9 5.3-2.1 8.4h42.9zM618.8 115.8c0-5.8 1-11.2 3-16.4 2-5.1 4.9-9.7 8.7-13.6 3.8-3.9 8.4-7 13.7-9.3 5.4-2.3 11.4-3.5 18.1-3.5 9 0 16.7 1.9 23.1 5.8 6.4 3.9 11.1 9 14.3 15.3l-20.7 6.3c-1.8-3-4.2-5.4-7.1-7-2.9-1.6-6.2-2.4-9.8-2.4-3.1 0-5.9.6-8.5 1.8-2.6 1.2-4.9 2.9-6.9 5-1.9 2.2-3.5 4.8-4.6 7.8-1.1 3.1-1.7 6.4-1.7 10.1 0 3.7.6 7 1.7 10.1 1.2 3.1 2.7 5.7 4.6 7.9s4.2 3.9 6.9 5.1c2.6 1.2 5.4 1.8 8.4 1.8 3.8 0 7.3-.9 10.5-2.8s5.4-4.2 6.7-6.9l20.7 6.3c-2.8 6.3-7.5 11.5-14 15.4-6.5 4-14.3 6-23.5 6-6.7 0-12.8-1.2-18.1-3.5-5.4-2.3-9.9-5.4-13.7-9.4-3.8-3.9-6.7-8.5-8.7-13.7-2.1-5.1-3.1-10.5-3.1-16.2z"/></g></svg>